<svg width="462" height="153" viewBox="0 0 462 153" fill="none" xmlns="http://www.w3.org/2000/svg">
<path d="M308.527 1H304.447L265.765 95.5591L257.115 117.154C253.458 126.184 250.477 132.368 249.443 134.332C247.615 139.436 243.024 143.329 240.956 144.638C237.039 146.863 232.687 147.746 231 147.91V151.836H276.211V147.91C267.332 147.779 263.48 144.365 262.664 142.675C260.705 140.875 260.868 134.822 261.685 132.205C262.337 130.111 263.915 125.334 264.622 123.207L300.693 34.5374L340.191 126.152C343.194 134.004 343.292 138.367 342.966 139.567C341.921 146.372 331.867 147.965 326.971 147.91V152H386.871V147.91C377.404 147.746 376.425 145.947 373.65 144.638C370.876 143.329 365.979 133.35 365.49 132.368C365.098 131.583 364.13 129.315 363.694 128.278L308.527 1Z" fill="#ffffff" stroke="#ffffff"/>
<path d="M126.006 35.4531C126.006 39.1055 125.176 42.9238 123.516 46.9082C119.033 57.5332 110.815 65.0869 98.8623 69.5693C106.001 70.8975 112.31 73.1387 117.788 76.293C129.575 83.5977 135.469 93.8906 135.469 107.172C135.469 115.639 132.896 123.441 127.749 130.58C117.788 144.193 102.1 151 80.6836 151H9.96094V144.525H29.8828V8.06055H9.96094V1.58594H79.9365C90.8936 1.58594 100.273 3.49512 108.076 7.31348C120.029 13.4561 126.006 22.8359 126.006 35.4531ZM73.96 8.06055H51.2988V66.5811H73.4619C80.1025 66.5811 85.9131 65.0039 90.8936 61.8496C99.3604 56.3711 103.594 48.2363 103.594 37.4453C103.594 35.1211 103.428 32.8799 103.096 30.7217C100.771 15.6143 91.0596 8.06055 73.96 8.06055ZM78.1934 73.3047H51.2988V144.525H79.4385C87.0752 144.525 93.6328 142.201 99.1113 137.553C107.412 130.414 111.562 120.453 111.562 107.67C111.562 102.191 110.566 97.1279 108.574 92.4795C103.428 79.6963 93.3008 73.3047 78.1934 73.3047Z" fill="#ffffff"/>
<path d="M193.633 70.9219C190.247 70.9219 187.057 71.7031 184.062 73.2656C174.948 77.8229 170.065 87.5885 169.414 102.562L190.117 103.148C196.107 103.279 200.729 103.018 203.984 102.367C210.234 100.935 213.359 96.9635 213.359 90.4531C213.359 87.5885 212.839 84.9193 211.797 82.4453C208.802 74.763 202.747 70.9219 193.633 70.9219ZM227.617 132.25C226.836 134.073 225.924 135.896 224.883 137.719C218.242 147.875 207.891 152.953 193.828 152.953C184.974 152.953 177.096 150.674 170.195 146.117C158.607 138.305 152.812 126.326 152.812 110.18C152.812 101.326 154.635 93.3828 158.281 86.3516C165.312 72.8099 176.966 66.0391 193.242 66.0391C201.576 66.0391 208.932 67.9271 215.312 71.7031C224.297 76.9115 228.789 83.9427 228.789 92.7969C228.789 97.6146 227.031 101.326 223.516 103.93C218.958 107.185 208.737 108.682 192.852 108.422L169.414 108.031C169.544 113.5 170.13 118.513 171.172 123.07C174.687 139.346 183.281 147.484 196.953 147.484C198.125 147.484 199.362 147.419 200.664 147.289C210.82 145.987 218.177 140.388 222.734 130.492L227.617 132.25Z" fill="#ffffff"
/>
<path d="M402.1 152V149.5L418.8 146L419 76.6L418.8 8.3L402.1 4.89999V1.99999H453.5V4.89999L436.8 8.3L436.6 76.6L436.8 145.9L453.5 149.5V152H402.1Z" fill="white"/>
</svg>
